<?xml version="1.0" encoding="iso-8859-1"?>
<!-- Generator: Adobe Illustrator 19.0.0, SVG Export Plug-In . SVG Version: 6.00 Build 0)  -->
<svg version="1.1" id="Layer_1" xmlns="http://www.w3.org/2000/svg" xmlns:xlink="http://www.w3.org/1999/xlink" x="0px" y="0px"
	 viewBox="0 0 512 512" style="enable-background:new 0 0 512 512;" xml:space="preserve">
<g>
	<g>
		<path d="M378.384,40.795c-54.014,0-101.531,32.55-122.384,79.943c-20.854-47.394-68.37-79.943-122.384-79.943
			C59.94,40.795,0,100.734,0,174.41c0,72.631,82.38,143.344,121.97,177.325l0.355,0.305
			c33.891,29.092,125.76,115.522,126.684,116.392c1.964,1.848,4.477,2.772,6.991,2.772c2.513,0,5.026-0.924,6.991-2.772
			c0.924-0.87,92.791-87.299,126.684-116.392l0.355-0.305C429.62,317.753,512,247.04,512,174.41
			C512,100.734,452.06,40.795,378.384,40.795z M376.743,336.259l-0.355,0.305C347.688,361.2,278.267,426.128,256,447.015
			c-22.267-20.887-91.688-85.815-120.388-110.451l-0.355-0.305C100.887,306.756,20.398,237.667,20.398,174.41
			c0-62.428,50.789-113.217,113.217-113.217c56.727,0,104.993,42.352,112.27,98.515c0.659,5.084,4.988,8.889,10.115,8.889
			c5.126,0,9.456-3.805,10.115-8.889c7.278-56.163,55.543-98.515,112.27-98.515c62.428,0,113.217,50.789,113.217,113.217
			C491.602,237.667,411.113,306.756,376.743,336.259z"/>
	</g>
</g>
<g>
	<g>
		<path d="M263.991,402.575c-33.698-31.466-78.487-72.94-100.495-91.832l-0.31-0.266c-3.813-3.273-8.135-6.982-12.761-11.028
			c-4.24-3.709-10.684-3.279-14.391,0.962c-3.709,4.239-3.278,10.683,0.962,14.391c4.698,4.109,9.058,7.852,12.904,11.154
			l0.31,0.266c22.887,19.646,72.389,65.612,99.859,91.263c1.966,1.836,4.465,2.745,6.959,2.745c2.727,0,5.448-1.087,7.457-3.238
			C268.329,412.873,268.109,406.42,263.991,402.575z"/>
	</g>
</g>
<g>
	<g>
		<path d="M122.645,273.979c-6.486-6.297-12.612-12.551-18.21-18.59c-3.83-4.132-10.283-4.377-14.414-0.548
			c-4.132,3.83-4.377,10.283-0.548,14.414c5.84,6.301,12.22,12.815,18.962,19.36c1.982,1.925,4.543,2.881,7.103,2.881
			c2.661,0,5.319-1.035,7.32-3.094C126.783,284.36,126.687,277.903,122.645,273.979z"/>
	</g>
</g>
<g>
</g>
<g>
</g>
<g>
</g>
<g>
</g>
<g>
</g>
<g>
</g>
<g>
</g>
<g>
</g>
<g>
</g>
<g>
</g>
<g>
</g>
<g>
</g>
<g>
</g>
<g>
</g>
<g>
</g>
</svg>
